# xmcd
#
# Track frame offsets:
#	150
#	20595
#	39435
#	63085
#	80622
#	104802
#
# Disc length: 1691 seconds
#
# Revision: 1
# Processed by: cddbd v1.5PL3 Copyright (c) Steve Scherf et al.
# Submitted via: CDex 1.50Beta5
#
DISCID=48069906
DTITLE=Day After Tomorrow - Day After Tomorrow II
DYEAR=2002
DGENRE=Pop
TTITLE0=Futurity
TTITLE1=Rosy Girl
TTITLE2=My Faith
TTITLE3=Hello, Everybody!
TTITLE4=Melody
TTITLE5=After All．．．
EXTD=
EXTT0=
EXTT1=
EXTT2=
EXTT3=
EXTT4=
EXTT5=
PLAYORDER=
